<mxfile host="app.diagrams.net" modified="2022-10-09T06:53:32.271Z" agent="5.0 (Windows NT 10.0; Win64; x64) AppleWebKit/537.36 (KHTML, like Gecko) Chrome/105.0.0.0 Safari/537.36" etag="gmr1so21R0XOr26cnnOE" version="20.3.7" type="github">
  <diagram id="e4hU8ujTFWHv5k0BidXy" name="第 1 页">
    <mxGraphModel dx="738" dy="398" grid="1" gridSize="10" guides="1" tooltips="1" connect="1" arrows="1" fold="1" page="1" pageScale="1" pageWidth="827" pageHeight="1169" math="0" shadow="0">
      <root>
        <mxCell id="0" />
        <mxCell id="1" parent="0" />
        <mxCell id="duzU3sQMEg9LIeqVRs8l-12" value="return" style="html=1;verticalAlign=bottom;endArrow=open;dashed=1;endSize=8;exitX=0;exitY=0.95;rounded=0;startArrow=none;" edge="1" source="duzU3sQMEg9LIeqVRs8l-13" parent="1" target="duzU3sQMEg9LIeqVRs8l-17">
          <mxGeometry relative="1" as="geometry">
            <mxPoint x="160" y="196" as="targetPoint" />
          </mxGeometry>
        </mxCell>
        <mxCell id="duzU3sQMEg9LIeqVRs8l-17" value="" style="shape=umlLifeline;participant=umlActor;perimeter=lifelinePerimeter;whiteSpace=wrap;html=1;container=1;collapsible=0;recursiveResize=0;verticalAlign=top;spacingTop=36;outlineConnect=0;" vertex="1" parent="1">
          <mxGeometry x="120" y="40" width="20" height="300" as="geometry" />
        </mxCell>
        <mxCell id="duzU3sQMEg9LIeqVRs8l-38" value="createRoom" style="html=1;verticalAlign=bottom;endArrow=block;rounded=0;dashed=1;" edge="1" parent="duzU3sQMEg9LIeqVRs8l-17" target="duzU3sQMEg9LIeqVRs8l-31">
          <mxGeometry width="80" relative="1" as="geometry">
            <mxPoint x="10" y="80" as="sourcePoint" />
            <mxPoint x="90" y="80" as="targetPoint" />
          </mxGeometry>
        </mxCell>
        <mxCell id="duzU3sQMEg9LIeqVRs8l-31" value="online服" style="shape=umlLifeline;perimeter=lifelinePerimeter;whiteSpace=wrap;html=1;container=1;collapsible=0;recursiveResize=0;outlineConnect=0;" vertex="1" parent="1">
          <mxGeometry x="195" y="40" width="105" height="300" as="geometry" />
        </mxCell>
        <mxCell id="duzU3sQMEg9LIeqVRs8l-13" value="" style="html=1;points=[];perimeter=orthogonalPerimeter;" vertex="1" parent="duzU3sQMEg9LIeqVRs8l-31">
          <mxGeometry x="47.5" y="80" width="10" height="80" as="geometry" />
        </mxCell>
        <mxCell id="duzU3sQMEg9LIeqVRs8l-16" value="初始化房间数据" style="text;html=1;align=center;verticalAlign=middle;resizable=0;points=[];autosize=1;strokeColor=none;fillColor=none;rotation=0;" vertex="1" parent="duzU3sQMEg9LIeqVRs8l-31">
          <mxGeometry x="-5" y="90" width="110" height="30" as="geometry" />
        </mxCell>
        <mxCell id="duzU3sQMEg9LIeqVRs8l-32" value="battle服" style="shape=umlLifeline;perimeter=lifelinePerimeter;whiteSpace=wrap;html=1;container=1;collapsible=0;recursiveResize=0;outlineConnect=0;" vertex="1" parent="1">
          <mxGeometry x="360" y="40" width="100" height="300" as="geometry" />
        </mxCell>
        <mxCell id="duzU3sQMEg9LIeqVRs8l-33" value="Redis" style="shape=umlLifeline;perimeter=lifelinePerimeter;whiteSpace=wrap;html=1;container=1;collapsible=0;recursiveResize=0;outlineConnect=0;" vertex="1" parent="1">
          <mxGeometry x="550" y="40" width="110" height="300" as="geometry" />
        </mxCell>
        <mxCell id="duzU3sQMEg9LIeqVRs8l-35" value="房间数据写入Reids" style="html=1;" vertex="1" parent="duzU3sQMEg9LIeqVRs8l-33">
          <mxGeometry x="45" y="80" width="20" height="70" as="geometry" />
        </mxCell>
        <mxCell id="duzU3sQMEg9LIeqVRs8l-34" value="saveRedis" style="html=1;verticalAlign=bottom;endArrow=block;rounded=0;dashed=1;exitX=0.582;exitY=-0.019;exitDx=0;exitDy=0;exitPerimeter=0;" edge="1" parent="1" source="duzU3sQMEg9LIeqVRs8l-16">
          <mxGeometry width="80" relative="1" as="geometry">
            <mxPoint x="260" y="130" as="sourcePoint" />
            <mxPoint x="590" y="130" as="targetPoint" />
          </mxGeometry>
        </mxCell>
        <mxCell id="duzU3sQMEg9LIeqVRs8l-37" value="saveSucess" style="html=1;verticalAlign=bottom;endArrow=open;dashed=1;endSize=8;rounded=0;" edge="1" parent="1" target="duzU3sQMEg9LIeqVRs8l-31">
          <mxGeometry x="-0.0072" y="-10" relative="1" as="geometry">
            <mxPoint x="590" y="190" as="sourcePoint" />
            <mxPoint x="510" y="190" as="targetPoint" />
            <mxPoint as="offset" />
          </mxGeometry>
        </mxCell>
      </root>
    </mxGraphModel>
  </diagram>
</mxfile>
